<svg xmlns="http://www.w3.org/2000/svg" version="1.1" xmlns:xlink="http://www.w3.org/1999/xlink" xmlns:svgjs="http://svgjs.com/svgjs" width="1300" height="660" preserveAspectRatio="none" viewBox="0 0 1300 660"><g mask="url(&quot;#SvgjsMask1841&quot;)" fill="none"><rect width="1300" height="660" x="0" y="0" fill="rgba(255, 246, 247, 1)"></rect><path d="M-117.11 29.1 a146.21 146.21 0 1 0 292.42 0 a146.21 146.21 0 1 0 -292.42 0z" fill="rgba(254, 228, 231, 1)" class="triangle-float2"></path><path d="M-124.1 36.09 a160.19 160.19 0 1 0 320.38 0 a160.19 160.19 0 1 0 -320.38 0z" fill="rgba(254, 228, 231, 1)" class="triangle-float3"></path><path d="M-138.78 50.77 a189.55 189.55 0 1 0 379.1 0 a189.55 189.55 0 1 0 -379.1 0z" fill="rgba(254, 228, 231, 1)" class="triangle-float3"></path><path d="M1103.19 -23.2 a41.61 41.61 0 1 0 83.22 0 a41.61 41.61 0 1 0 -83.22 0z" fill="rgba(254, 228, 231, 1)" class="triangle-float2"></path><path d="M1077.42 2.59 a93.17 93.17 0 1 0 186.34 0 a93.17 93.17 0 1 0 -186.34 0z" fill="rgba(254, 228, 231, 1)" class="triangle-float1"></path><path d="M1087.34 -7.35 a73.31 73.31 0 1 0 146.62 0 a73.31 73.31 0 1 0 -146.62 0z" fill="rgba(254, 228, 231, 1)" class="triangle-float3"></path><path d="M-137.33 577.33 a186.66 186.66 0 1 0 373.32 0 a186.66 186.66 0 1 0 -373.32 0z" fill="rgba(254, 228, 231, 1)" class="triangle-float1"></path><path d="M-153.37 593.37 a218.74 218.74 0 1 0 437.48 0 a218.74 218.74 0 1 0 -437.48 0z" fill="rgba(254, 228, 231, 1)" class="triangle-float2"></path><path d="M-144.86 584.85 a201.71 201.71 0 1 0 403.42 0 a201.71 201.71 0 1 0 -403.42 0z" fill="rgba(254, 228, 231, 1)" class="triangle-float3"></path><path d="M1066.32 541.69 a115.37 115.37 0 1 0 230.74 0 a115.37 115.37 0 1 0 -230.74 0z" fill="rgba(254, 228, 231, 1)" class="triangle-float1"></path><path d="M1021.01 586.99 a205.98 205.98 0 1 0 411.96 0 a205.98 205.98 0 1 0 -411.96 0z" fill="rgba(254, 228, 231, 1)" class="triangle-float3"></path><path d="M1111.82 496.18 a24.36 24.36 0 1 0 48.72 0 a24.36 24.36 0 1 0 -48.72 0z" fill="rgba(254, 228, 231, 1)" class="triangle-float3"></path></g><defs><mask id="SvgjsMask1841"><rect width="1300" height="660" fill="#ffffff"></rect></mask><style>
            @keyframes float1 {
                0%{transform: translate(0, 0)}
                50%{transform: translate(-10px, 0)}
                100%{transform: translate(0, 0)}
            }

            .triangle-float1 {
                animation: float1 5s infinite;
            }

            @keyframes float2 {
                0%{transform: translate(0, 0)}
                50%{transform: translate(-5px, -5px)}
                100%{transform: translate(0, 0)}
            }

            .triangle-float2 {
                animation: float2 4s infinite;
            }

            @keyframes float3 {
                0%{transform: translate(0, 0)}
                50%{transform: translate(0, -10px)}
                100%{transform: translate(0, 0)}
            }

            .triangle-float3 {
                animation: float3 6s infinite;
            }
        </style></defs></svg>