<svg xmlns="http://www.w3.org/2000/svg" version="1.1" xmlns:xlink="http://www.w3.org/1999/xlink" xmlns:svgjs="http://svgjs.com/svgjs" width="1440" height="660" preserveAspectRatio="none" viewBox="0 0 1440 660"><g mask="url(&quot;#SvgjsMask1423&quot;)" fill="none"><rect width="1440" height="660" x="0" y="0" fill="url(#SvgjsLinearGradient1424)"></rect><path d="M-129.18 41.17 a170.35 170.35 0 1 0 340.7 0 a170.35 170.35 0 1 0 -340.7 0z" fill="rgba(254, 228, 231, 1)" class="triangle-float3"></path><path d="M-79.39 -8.6 a70.79 70.79 0 1 0 141.58 0 a70.79 70.79 0 1 0 -141.58 0z" fill="rgba(254, 228, 231, 1)" class="triangle-float3"></path><path d="M-129.97 41.98 a171.95 171.95 0 1 0 343.9 0 a171.95 171.95 0 1 0 -343.9 0z" fill="rgba(254, 228, 231, 1)" class="triangle-float2"></path><path d="M1209.12 10.88 a109.76 109.76 0 1 0 219.52 0 a109.76 109.76 0 1 0 -219.52 0z" fill="rgba(254, 228, 231, 1)" class="triangle-float2"></path><path d="M1191.59 28.4 a144.81 144.81 0 1 0 289.62 0 a144.81 144.81 0 1 0 -289.62 0z" fill="rgba(254, 228, 231, 1)" class="triangle-float3"></path><path d="M1255.16 -35.16 a17.68 17.68 0 1 0 35.36 0 a17.68 17.68 0 1 0 -35.36 0z" fill="rgba(254, 228, 231, 1)" class="triangle-float3"></path><path d="M-144.07 584.08 a200.15 200.15 0 1 0 400.3 0 a200.15 200.15 0 1 0 -400.3 0z" fill="rgba(254, 228, 231, 1)" class="triangle-float1"></path><path d="M-153.7 593.71 a219.41 219.41 0 1 0 438.82 0 a219.41 219.41 0 1 0 -438.82 0z" fill="rgba(254, 228, 231, 1)" class="triangle-float3"></path><path d="M-77.66 517.67 a67.33 67.33 0 1 0 134.66 0 a67.33 67.33 0 1 0 -134.66 0z" fill="rgba(254, 228, 231, 1)" class="triangle-float3"></path><path d="M1175.58 572.42 a176.84 176.84 0 1 0 353.68 0 a176.84 176.84 0 1 0 -353.68 0z" fill="rgba(254, 228, 231, 1)" class="triangle-float3"></path><path d="M1165.65 582.35 a196.7 196.7 0 1 0 393.4 0 a196.7 196.7 0 1 0 -393.4 0z" fill="rgba(254, 228, 231, 1)" class="triangle-float2"></path><path d="M1243.99 504 a40.01 40.01 0 1 0 80.02 0 a40.01 40.01 0 1 0 -80.02 0z" fill="rgba(254, 228, 231, 1)" class="triangle-float1"></path></g><defs><mask id="SvgjsMask1423"><rect width="1440" height="660" fill="#ffffff"></rect></mask><linearGradient x1="100%" y1="50%" x2="0%" y2="50%" gradientUnits="userSpaceOnUse" id="SvgjsLinearGradient1424"><stop stop-color="rgba(255, 246, 247, 0.99)" offset="0.86"></stop><stop stop-color="rgba(255, 246, 247, 0.99)" offset="1"></stop></linearGradient><style>
            @keyframes float1 {
                0%{transform: translate(0, 0)}
                50%{transform: translate(-10px, 0)}
                100%{transform: translate(0, 0)}
            }

            .triangle-float1 {
                animation: float1 5s infinite;
            }

            @keyframes float2 {
                0%{transform: translate(0, 0)}
                50%{transform: translate(-5px, -5px)}
                100%{transform: translate(0, 0)}
            }

            .triangle-float2 {
                animation: float2 4s infinite;
            }

            @keyframes float3 {
                0%{transform: translate(0, 0)}
                50%{transform: translate(0, -10px)}
                100%{transform: translate(0, 0)}
            }

            .triangle-float3 {
                animation: float3 6s infinite;
            }
        </style></defs></svg>