<svg xmlns="http://www.w3.org/2000/svg" version="1.1" xmlns:xlink="http://www.w3.org/1999/xlink" xmlns:svgjs="http://svgjs.com/svgjs" width="2014" height="844" preserveAspectRatio="none" viewBox="0 0 2014 844"><g mask="url(&quot;#SvgjsMask1273&quot;)" fill="none"><rect width="2014" height="844" x="0" y="0" fill="rgba(47, 72, 88, 1)"></rect><path d="M2114.7000000000003 844L0 844 L0 551.59Q19.52 403.28, 167.83333333333334 422.8Q242.53 396.8, 268.53333333333336 471.49Q359.43 394.55, 436.3666666666667 485.44Q556.66 437.9, 604.2 558.19Q641.2 427.36, 772.0333333333334 464.36Q811.64 403.26, 872.7333333333335 442.87Q1007.71 410.01, 1040.5666666666668 544.98Q1097.01 500.72, 1141.2666666666669 557.17Q1177.96 493.16, 1241.966666666667 529.85Q1300.92 488.1, 1342.666666666667 547.06Q1385.57 422.13, 1510.5000000000002 465.04Q1584.34 371.05, 1678.3333333333335 444.89Q1771.95 437.81, 1779.0333333333335 531.43Q1829.87 414.43, 1946.8666666666668 465.27Q2039.81 390.38, 2114.7000000000003 483.32z" fill="rgba(89, 99, 119, 0)"></path><path d="M2114.7000000000003 844L0 844 L0 611.27Q106.68 550.12, 167.83333333333334 656.8Q189.84 578.11, 268.53333333333336 600.12Q301.09 531.98, 369.23333333333335 564.53Q447.03 474.49, 537.0666666666667 552.28Q624.04 538.55, 637.7666666666668 625.52Q742.8 562.72, 805.6000000000001 667.75Q873.5 567.81, 973.4333333333335 635.71Q1040.78 535.22, 1141.2666666666669 602.56Q1155.56 516.15, 1241.966666666667 530.44Q1331.47 452.11, 1409.8000000000002 541.62Q1502.29 466.28, 1577.6333333333334 558.77Q1670.6 551.04, 1678.3333333333335 644.01Q1707.3 572.28, 1779.0333333333335 601.24Q1852.47 506.84, 1946.8666666666668 580.28Q2013.92 479.5, 2114.7000000000003 546.55z" fill="rgba(132, 128, 149, 1)"></path><path d="M2014.0000000000002 844L0 844 L0 647.09Q79.53 558.78, 167.83333333333334 638.31Q228.25 598.02, 268.53333333333336 658.44Q369.63 591.71, 436.3666666666667 692.81Q502.23 657.98, 537.0666666666667 723.84Q611.22 697.29, 637.7666666666668 771.44Q647.41 680.38, 738.4666666666668 690.03Q804.43 588.16, 906.3000000000002 654.13Q966.22 613.35, 1007.0000000000002 673.27Q1073.65 639.22, 1107.7000000000003 705.87Q1147.06 644.53, 1208.4000000000003 683.88Q1329.07 636.72, 1376.2333333333336 757.39Q1440.7 654.02, 1544.0666666666668 718.48Q1568.16 641.87, 1644.7666666666669 665.97Q1683.52 604.02, 1745.466666666667 642.77Q1882.88 612.35, 1913.3000000000002 749.76Q1924.76 660.52, 2014.0000000000002 671.97z" fill="rgba(175, 159, 176, 1)"></path><path d="M2181.8333333333335 844L0 844 L0 879.69Q35.26 814.25, 100.70000000000002 849.52Q155.69 736.68, 268.53333333333336 791.67Q327.79 750.23, 369.23333333333335 809.48Q462.55 734.96, 537.0666666666667 828.28Q615.42 805.93, 637.7666666666668 884.28Q660.46 739.14, 805.6000000000001 761.84Q909.08 697.48, 973.4333333333335 800.96Q1027.45 687.14, 1141.2666666666669 741.15Q1236.41 668.46, 1309.1000000000001 763.6Q1368.48 722.28, 1409.8000000000002 781.66Q1517.7 721.72, 1577.6333333333334 829.62Q1684.49 768.64, 1745.4666666666667 875.5Q1765.64 794.97, 1846.1666666666667 815.14Q1941.05 742.19, 2014 837.07Q2103.43 758.67, 2181.8333333333335 848.1z" fill="rgba(255, 246, 247, 1)"></path></g><defs><mask id="SvgjsMask1273"><rect width="2014" height="844" fill="#ffffff"></rect></mask></defs></svg>