<svg xmlns="http://www.w3.org/2000/svg" version="1.1" xmlns:xlink="http://www.w3.org/1999/xlink" xmlns:svgjs="http://svgjs.com/svgjs" width="1920" height="1081" preserveAspectRatio="none" viewBox="0 0 1920 1081"><g mask="url(&quot;#SvgjsMask1097&quot;)" fill="none"><rect width="1920" height="1081" x="0" y="0" fill="rgba(255, 246, 247, 1)"></rect><path d="M0,599.949C106.984,569.362,154.028,445.281,250.219,389.349C353.414,329.344,504.928,358.391,577.898,263.917C651.832,168.195,631.925,31.228,619.772,-89.11C607.197,-213.632,600.991,-356.707,506.89,-439.223C413.571,-521.054,271.823,-502.195,147.71,-503.055C51.002,-503.725,-40.463,-479.538,-130.263,-443.637C-212.709,-410.676,-289.765,-368.469,-350.632,-303.824C-413.38,-237.182,-460.537,-158.219,-482.636,-69.393C-506.375,26.022,-499.106,122.984,-480.855,219.599C-457.826,341.505,-460.168,487.665,-362.865,564.63C-265.581,641.581,-119.261,634.046,0,599.949" fill="#ffdde1"></path><path d="M1920 1530.476C2005.044 1530.145 2080.978 1488.246 2156.1 1448.379 2237.548 1405.155 2343.313 1375.403 2375.2219999999998 1288.893 2407.208 1202.174 2344.66 1111.203 2312.418 1024.579 2286.438 954.777 2240.513 899.282 2205.702 833.438 2158.283 743.7470000000001 2164.0860000000002 607.3340000000001 2070.773 567.515 1980.18 528.857 1889.328 627.198 1795.971 658.596 1707.132 688.475 1595.321 675.664 1535.259 747.62 1475.253 819.51 1501.962 926.476 1494.462 1019.817 1487.479 1106.731 1457.856 1196.21 1492.798 1276.097 1527.9270000000001 1356.412 1607.397 1405.37 1682.717 1450.22 1755.941 1493.821 1834.779 1530.807 1920 1530.476" fill="#ffffff"></path></g><defs><mask id="SvgjsMask1097"><rect width="1920" height="1081" fill="#ffffff"></rect></mask></defs></svg>