<svg id="visual" viewBox="0 0 1920 1080" width="1920" height="1080" xmlns="http://www.w3.org/2000/svg" xmlns:xlink="http://www.w3.org/1999/xlink" version="1.1"><rect x="0" y="0" width="1920" height="1080" fill="#fff6f7"></rect><defs><linearGradient id="grad1_0" x1="43.8%" y1="100%" x2="100%" y2="0%"><stop offset="14.444444444444446%" stop-color="#fff6f7" stop-opacity="1"></stop><stop offset="85.55555555555554%" stop-color="#fff6f7" stop-opacity="1"></stop></linearGradient></defs><defs><linearGradient id="grad2_0" x1="0%" y1="100%" x2="56.3%" y2="0%"><stop offset="14.444444444444446%" stop-color="#fff6f7" stop-opacity="1"></stop><stop offset="85.55555555555554%" stop-color="#fff6f7" stop-opacity="1"></stop></linearGradient></defs><g transform="translate(1920, 1080)"><path d="M-648 0C-633.3 -117.2 -618.6 -234.5 -561.2 -324C-503.8 -413.5 -403.6 -475.4 -303 -524.8C-202.4 -574.2 -101.2 -611.1 0 -648L0 0Z" fill="#FEE4E7"></path></g><g transform="translate(0, 0)"><path d="M648 0C610.6 100.9 573.3 201.8 523.9 302.5C474.6 403.2 413.3 503.6 324 561.2C234.7 618.7 117.3 633.4 0 648L0 0Z" fill="#FEE4E7"></path></g></svg>