<svg xmlns="http://www.w3.org/2000/svg" version="1.1" xmlns:xlink="http://www.w3.org/1999/xlink" xmlns:svgjs="http://svgjs.com/svgjs" width="1920" height="850" preserveAspectRatio="none" viewBox="0 0 1920 850"><g mask="url(&quot;#SvgjsMask1832&quot;)" fill="none"><rect width="1920" height="850" x="0" y="0" fill="rgba(255, 246, 247, 1)"></rect><path d="M0,570.403C104.268,552.979,151.187,430.742,238.875,371.697C323.833,314.49,449.841,316.969,504.766,230.519C560.635,142.584,543.335,26.97,522.784,-75.165C503.018,-173.399,458.185,-264.491,390.327,-338.22C323.789,-410.516,238.696,-464.588,143.178,-487.618C50.342,-510.002,-49.357,-504.069,-136.616,-465.271C-218.353,-428.929,-269.379,-351.521,-323.353,-280.187C-373.965,-213.296,-412.22,-142.258,-440.715,-63.365C-475.758,33.657,-535.787,132.726,-508.413,232.185C-480.238,334.552,-384.755,402.329,-296.355,461.137C-206.882,520.658,-105.992,588.115,0,570.403" fill="#ffdde1"></path><path d="M1920 1373.606C2024.337 1351.4279999999999 2130.683 1370.1799999999998 2231.001 1333.9270000000001 2352.841 1289.896 2492.883 1253.08 2560.055 1142.3029999999999 2628.525 1029.386 2601.786 885.383 2582.172 754.794 2562.66 624.883 2548.677 476.709 2447.502 392.917 2347.839 310.37699999999995 2197.945 362.071 2072.014 332.288 1955.333 304.693 1855.316 209.35400000000004 1736.408 224.74400000000003 1611.521 240.90800000000002 1493.423 314.428 1419.93 416.687 1348.7530000000002 515.723 1363.531 646.778 1346.318 767.517 1329.1280000000002 888.092 1291.9180000000001 1005.717 1319.0259999999998 1124.4560000000001 1350.08 1260.48 1381.701 1433.624 1510.588 1487.058 1644.109 1542.413 1778.618 1403.658 1920 1373.606" fill="#ffffff"></path></g><defs><mask id="SvgjsMask1832"><rect width="1920" height="850" fill="#ffffff"></rect></mask></defs></svg>